<svg xmlns="http://www.w3.org/2000/svg" viewBox="0 0 40 40" id="vw">
  <path d="M19.8 3.65a15 15 0 1 0 15 15 15 15 0 0 0-15-15Zm0 1.35a12.8 12.8 0 0 1 4.44.78L20 15.38c-.06.12-.09.18-.18.18s-.12-.09-.18-.18l-4.26-9.6A12.8 12.8 0 0 1 19.8 5Zm-6.54 1.74 5 11.07a.35.35 0 0 0 .36.24H21a.35.35 0 0 0 .39-.24l5-11.07a14.06 14.06 0 0 1 4.89 4.59l-7 13.92c0 .09-.09.18-.18.18s-.12-.09-.18-.18l-2.61-5.94a.35.35 0 0 0-.39-.24h-2.4a.35.35 0 0 0-.39.24l-2.52 5.94c0 .09-.09.18-.18.18s-.12-.09-.18-.18L8.37 11.33a13.81 13.81 0 0 1 4.89-4.59Zm6.54 25.53A13.66 13.66 0 0 1 6.21 18.65a13.32 13.32 0 0 1 .87-4.77l8 16a.49.49 0 0 0 1 0l3.66-8.19c0-.09.09-.18.18-.18s.12.09.18.18l3.66 8.19a.49.49 0 0 0 1 0l8-16a13.32 13.32 0 0 1 .87 4.77A13.75 13.75 0 0 1 19.8 32.27Z"></path>
</svg>
